<svg xmlns="http://www.w3.org/2000/svg" viewBox="0 0 701.02103 165"><title>logodark</title><g id="Calque_2" data-name="Calque 2"><g id="Calque_1-2" data-name="Calque 1"><path d="M137.92374,25.61751C151.26265,33.33316,169.571,36.341,177.2866,46.0182c7.84642,9.808,5.10017,26.28549,1.30774,43.80916-3.79244,17.65444-8.50029,36.35506-20.53146,48.77856s-31.25489,18.70063-53.48641,23.01615c-22.36229,4.18476-47.73237,6.27714-64.07907-4.70785-16.3467-11.11576-23.67-35.30887-30.99335-59.37122C2.31151,73.61143-4.881,50.07218,4.40388,35.03321S39.45121,13.58634,59.45958,7.96307C79.33716,2.33981,93.46071-2.49882,104.70725,1.42439,116.08455,5.21683,124.45406,17.90187,137.92374,25.61751Z" fill="#cc3e33"/><text transform="translate(56.8804 124.02709)" font-size="119.24449" fill="#f9f9fb" font-family="CooperHewitt-Book, Cooper Hewitt"><tspan letter-spacing="-0.01999em">P</tspan><tspan x="65.94287" y="0" letter-spacing="-0.02398em">r</tspan><tspan x="102.79053" y="0">osit </tspan><tspan x="327.20313" y="0" font-family="CooperHewitt-Light, Cooper Hewitt" font-weight="300">Boo</tspan><tspan x="523.95508" y="0" font-family="CooperHewitt-Light, Cooper Hewitt" font-weight="300" letter-spacing="-0.01199em">s</tspan><tspan x="584.53125" y="0" font-family="CooperHewitt-Light, Cooper Hewitt" font-weight="300">t</tspan></text></g></g></svg>