<?xml version="1.0" encoding="utf-8"?>
<!-- Generator: Adobe Illustrator 23.0.0, SVG Export Plug-In . SVG Version: 6.00 Build 0)  -->
<svg version="1.1" baseProfile="basic" id="Calque_1"
	 xmlns="http://www.w3.org/2000/svg" xmlns:xlink="http://www.w3.org/1999/xlink" x="0px" y="0px" viewBox="0 0 701 165"
	 xml:space="preserve">
<title>logolight</title>
<path fill="#CC3E33" d="M137.9,25.6c13.3,7.7,31.6,10.7,39.4,20.4c7.8,9.8,5.1,26.3,1.3,43.8c-3.8,17.7-8.5,36.4-20.5,48.8
	s-31.3,18.7-53.5,23c-22.4,4.2-47.7,6.3-64.1-4.7c-16.3-11.1-23.7-35.3-31-59.4C2.3,73.6-4.9,50.1,4.4,35S39.5,13.6,59.5,8
	c19.9-5.6,34-10.5,45.2-6.5C116.1,5.2,124.5,17.9,137.9,25.6z"/>
<g>
	<path fill="#1C1C1E" d="M74.3,86.2V124h-8.6V31h25.8c3.7,0,7,0.4,10.1,1.2c3.1,0.8,6.1,2.1,9,3.9c2.9,1.8,5.2,4.6,6.9,8.2
		c1.7,3.7,2.5,8,2.5,13.1v2.4c0,5.1-0.8,9.4-2.5,13.1c-1.7,3.6-4,6.3-6.9,8.2c-2.9,1.8-5.9,3.1-9,3.9c-3.1,0.8-6.5,1.2-10.1,1.2
		H74.3z M74.3,78.5h17.4c2.3,0,4.5-0.3,6.5-0.8c2-0.5,4.1-1.4,6.1-2.7c2.1-1.3,3.7-3.2,4.9-5.8c1.2-2.6,1.8-5.8,1.8-9.7v-1.8
		c0-3.8-0.6-7-1.8-9.7c-1.2-2.6-2.9-4.6-4.9-5.8c-2.1-1.3-4.1-2.2-6.1-2.7c-2-0.5-4.2-0.8-6.5-0.8H74.3V78.5z"/>
</g>
<g>
	<path fill="#1C1C1E" d="M155.7,59.5c0.2,0,0.5,0,0.8,0.1c0.3,0,0.5,0.1,0.7,0.1h0.4v8h-1.7c-7.2,0-12.8,3.2-16.8,9.5V124h-8.3V78.7
		L130,60.8h6.9l1.2,8.3C142.2,62.7,148.1,59.5,155.7,59.5z"/>
</g>
<g>
	<path fill="#1C1C1E" d="M212,116.6c-4.5,5.8-11.1,8.8-19.9,8.8s-15.5-2.9-19.9-8.8c-4.5-5.8-6.7-13.4-6.7-22.7V91
		c0-9.3,2.2-16.9,6.7-22.7c4.5-5.8,11.1-8.8,19.9-8.8s15.5,2.9,19.9,8.8c4.5,5.8,6.7,13.4,6.7,22.7v2.9
		C218.7,103.2,216.5,110.7,212,116.6z M178.5,111.4c3,4.3,7.6,6.4,13.6,6.4c6,0,10.6-2.1,13.6-6.4c3-4.3,4.5-10.1,4.5-17.6V91
		c0-7.5-1.5-13.3-4.5-17.6c-3-4.3-7.6-6.4-13.6-6.4c-6,0-10.6,2.1-13.6,6.4c-3,4.3-4.5,10.1-4.5,17.6v2.9
		C174,101.3,175.5,107.2,178.5,111.4z"/>
	<path fill="#1C1C1E" d="M255.7,118.3c5,0,8.9-1,11.6-3.1c2.7-2.1,4.1-4.9,4.1-8.5c0-4.1-1.3-7-3.8-8.5c-2.5-1.5-7-2.6-13.5-3.2
		c-8.1-0.7-13.8-2.4-17.1-5.2c-3.3-2.7-4.9-6.6-4.9-11.6v-0.7c0-5.6,2.1-10,6.3-13.2c4.2-3.2,9.9-4.8,17.2-4.8
		c15.7,0,23.6,7.1,23.6,21.2v0.5H271c0-4.8-1.2-8.5-3.5-11c-2.3-2.5-6.3-3.7-11.9-3.7c-4.8,0-8.5,1-11.1,2.9c-2.7,1.9-4,4.6-4,8.1
		c0,3.5,1.2,6.1,3.5,7.9c2.3,1.7,6.8,2.9,13.3,3.3c8,0.6,13.8,2.3,17.4,4.9c3.5,2.6,5.3,6.8,5.3,12.5v0.6c0,5.6-2.1,10.2-6.4,13.5
		c-4.3,3.4-10.3,5.1-17.9,5.1c-8.3,0-14.4-2-18.4-6c-4-4-6-8.7-6-14.2v-0.5h8.3C239.7,113.8,245,118.3,255.7,118.3z"/>
	<path fill="#1C1C1E" d="M305,35.2v10.7h-10.7V35.2H305z M295.5,124V60.8h8.3V124H295.5z"/>
	<path fill="#1C1C1E" d="M334.6,60.8h20.2v7.5h-20.2v37.1c0,4.8,1,8,2.9,9.8c1.9,1.8,5,2.6,9.2,2.6c3.1,0,5.4-0.4,6.8-1.1v7.3
		c-2.3,0.9-5.2,1.3-8.8,1.3c-5.7,0-10.2-1.5-13.5-4.5c-3.3-3-4.9-7.8-4.9-14.3V68.3h-10v-7.5h10V42.9h8.3V60.8z"/>
</g>
<g>
	<path fill="#1C1C1E" d="M393.6,31h21.1c8.3,0,15,1.9,20.1,5.8c5.1,3.9,7.7,9.4,7.7,16.8v2.4c0,10.4-5.2,17.1-15.5,20
		c5.6,1.3,9.9,3.7,13.1,7.4c3.2,3.7,4.8,8.5,4.8,14.4v2.4c0,7.6-2.6,13.5-7.7,17.6c-5.1,4.1-11.8,6.2-20.1,6.2h-23.5V31z
		 M415.3,35.5h-16.9v38.4h16.9c6.6,0,11.9-1.5,16-4.5c4.1-3,6.1-7.6,6.1-13.8v-1.9c0-6.2-2-10.8-6.1-13.8
		C427.3,37,421.9,35.5,415.3,35.5z M417.7,78.5h-19.3v41h19.3c6.5,0,11.8-1.6,16-4.9c4.1-3.3,6.2-8.2,6.2-14.6V98
		c0-6.4-2.1-11.3-6.2-14.6C429.6,80.1,424.2,78.5,417.7,78.5z"/>
	<path fill="#1C1C1E" d="M503.5,116.4c-4.3,5.9-10.7,8.8-19.3,8.8s-15-2.9-19.3-8.8c-4.3-5.9-6.4-13.5-6.4-22.8v-2.4
		c0-9.3,2.1-16.9,6.4-22.8c4.3-5.9,10.7-8.8,19.3-8.8s15,2.9,19.3,8.8c4.3,5.9,6.4,13.5,6.4,22.8v2.4
		C509.9,102.9,507.8,110.5,503.5,116.4z M468.8,113.4c3.5,4.8,8.6,7.3,15.4,7.3c6.8,0,12-2.4,15.4-7.3c3.5-4.8,5.2-11.4,5.2-19.8
		v-2.4c0-8.3-1.7-14.9-5.2-19.8c-3.5-4.8-8.6-7.3-15.4-7.3c-6.8,0-12,2.4-15.4,7.3c-3.5,4.8-5.2,11.4-5.2,19.8v2.4
		C463.6,102,465.3,108.6,468.8,113.4z"/>
	<path fill="#1C1C1E" d="M567.9,116.4c-4.3,5.9-10.7,8.8-19.3,8.8c-8.6,0-15-2.9-19.3-8.8c-4.3-5.9-6.4-13.5-6.4-22.8v-2.4
		c0-9.3,2.1-16.9,6.4-22.8c4.3-5.9,10.7-8.8,19.3-8.8c8.6,0,15,2.9,19.3,8.8c4.3,5.9,6.4,13.5,6.4,22.8v2.4
		C574.3,102.9,572.1,110.5,567.9,116.4z M533.2,113.4c3.5,4.8,8.6,7.3,15.4,7.3c6.8,0,12-2.4,15.4-7.3c3.5-4.8,5.2-11.4,5.2-19.8
		v-2.4c0-8.3-1.7-14.9-5.2-19.8c-3.5-4.8-8.6-7.3-15.4-7.3c-6.8,0-12,2.4-15.4,7.3c-3.5,4.8-5.2,11.4-5.2,19.8v2.4
		C528,102,529.7,108.6,533.2,113.4z"/>
</g>
<g>
	<path fill="#1C1C1E" d="M611.8,120.7c5.8,0,10.3-1.2,13.5-3.6c3.2-2.4,4.8-5.6,4.8-9.8c0-4.8-1.5-8.1-4.4-9.9
		c-2.9-1.7-8.2-2.9-15.6-3.6c-7.8-0.7-13.2-2.5-16.2-5.2c-3-2.8-4.5-6.6-4.5-11.3v-0.6c0-5,2-9.1,5.9-12.3c3.9-3.2,9.5-4.8,16.6-4.8
		c15.1,0,22.7,7,22.7,21v0.5h-4.8c0-5.6-1.3-9.8-4-12.6c-2.7-2.9-7.3-4.3-13.9-4.3c-5.6,0-9.9,1.1-12.9,3.3
		c-3.1,2.2-4.6,5.4-4.6,9.4s1.3,7.1,4,9.1c2.7,2,7.8,3.3,15.3,3.9c7.9,0.6,13.4,2.2,16.6,4.8c3.2,2.7,4.8,6.8,4.8,12.3v0.5
		c0,5.2-2.1,9.4-6.2,12.7c-4.1,3.3-9.8,4.9-17.1,4.9c-4.2,0-7.9-0.6-11.1-1.8c-3.2-1.2-5.6-2.8-7.3-4.8c-1.7-2-2.9-4.1-3.7-6.3
		c-0.8-2.2-1.2-4.5-1.2-6.9v-0.5h4.8c0,4.6,1.4,8.4,4.2,11.3C600.3,119.2,605.1,120.7,611.8,120.7z"/>
</g>
<g>
	<path fill="#1C1C1E" d="M660.5,60.8H682v4.5h-21.5v42c0,5.2,1,8.7,3.1,10.6c2.1,1.9,5.4,2.8,10,2.8c3.2,0,5.6-0.4,7.2-1.1v4.4
		c-1.8,0.8-4.6,1.2-8.3,1.2c-5.1,0-9.1-1.4-12.2-4.2c-3-2.8-4.5-7.2-4.5-13.1V65.4h-10.1v-4.5h10.1V42.9h4.8V60.8z"/>
</g>
</svg>
