<?xml version="1.0" encoding="utf-8"?>
<!-- Generator: Adobe Illustrator 23.0.0, SVG Export Plug-In . SVG Version: 6.00 Build 0)  -->
<svg version="1.1" id="Layer_1" xmlns="http://www.w3.org/2000/svg" xmlns:xlink="http://www.w3.org/1999/xlink" x="0px" y="0px"
	 viewBox="0 0 141.8 142.9" style="enable-background:new 0 0 141.8 142.9;" xml:space="preserve">
<style type="text/css">
	.st0{fill:#24285B;}
	.st1{fill:#E44634;}
	.st2{opacity:0.46;fill:#FFFFFF;enable-background:new    ;}
	.st3{fill:#F4A28C;}
	.st4{fill:#FFD200;}
	.st5{opacity:0.31;fill:#CE8172;enable-background:new    ;}
	.st6{fill:#FFFFFF;}
	.st7{opacity:0.32;fill:#FFFFFF;enable-background:new    ;}
	.st8{opacity:8.000000e-02;enable-background:new    ;}
</style>
<title>#127_user avatar_twocolour</title>
<circle class="st0" cx="70.9" cy="70.9" r="70.9"/>
<path class="st1" d="M110.8,62.7c0,0,21.8,14.3,15.8,52.1c0,0-6.8,9.1-15.9,14.8L110.8,62.7z"/>
<path class="st2" d="M110.8,62.7c0,0,21.8,14.3,15.8,52.1c0,0-6.8,9.1-15.9,14.8L110.8,62.7z"/>
<path class="st3" d="M75.2,25.3c0,0,1.5,7,0.8,11.9c-0.3,2-2.1,3.4-4.1,3.1l0,0c-2.4-0.4-5.7-1.6-6.9-5.2l-2.9-6
	c-0.9-2.6-0.1-5.5,2-7.2C67.8,18.6,74.5,21,75.2,25.3z"/>
<polygon class="st3" points="62.7,30.2 61.7,53.7 74.7,53.3 70.2,36.4 "/>
<path class="st4" d="M73.4,25.8c-2.2,0.3-4.4,0.4-6.6,0.3c1.5,1.8,1.8,4.4,0.8,6.5s-3.4,3.2-5.6,2.6l-1-9.1c-0.4-2.7,0.7-5.4,3-7
	c0.9-0.7,1.9-1.3,2.9-1.9c2.5-1.4,6.6-0.1,8.7-2.1c0.7-0.7,1.8-0.6,2.5,0.1c0.2,0.2,0.3,0.5,0.4,0.7c0.7,2.7,0.8,7.2-2.8,9.1
	C74.9,25.4,74.2,25.7,73.4,25.8z"/>
<path class="st3" d="M68.3,32.3c0,0-0.4-2.7-2.4-2.3c-2,0.5-1.5,4.4,1.3,4.5L68.3,32.3z"/>
<path class="st3" d="M75.8,29.8l2.3,2.5c0.4,0.5,0.4,1.2-0.1,1.6c-0.1,0.1-0.3,0.2-0.4,0.3L74.9,35L75.8,29.8z"/>
<path class="st5" d="M71.3,40c-1.7-0.2-3.2-0.9-4.5-2c0,0,0.7,4.3,5.9,7.9L71.3,40z"/>
<path class="st1" d="M23.3,123.5c0,0-35.8-60.1,37.6-70.1h13.8c0,0,72.8-8.9,36,76.2l0,0C85.1,148.5,49.8,147,26,125.9L23.3,123.5z"
	/>
<path class="st0" d="M55.1,53.9l17.7,64.4L83,53C82.9,53,64.2,51.6,55.1,53.9z"/>
<polygon class="st6" points="66.2,62.9 65.6,92.2 72.8,118.4 77,91 70.8,62.7 "/>
<path class="st6" d="M63.8,56.5c0,0-1.2,6.6,2.7,6.9c7,0.4,6.1-1.2,5.2-7.7l-4.3-3L63.8,56.5z"/>
<polygon class="st7" points="55.1,53.9 42.7,80.7 59.9,89.1 53.1,102.8 72.8,118.4 "/>
<polygon class="st7" points="72.8,118.4 82.9,53 96.2,80.4 81.7,89.3 90.2,103.6 "/>
<path class="st8" d="M40.2,88.2c0,0,6,8.6,6.5,26.4s11.4,28.9,41.5,25.8c0,0-23.1,8.8-51.1-6.5l-9.6-36L40.2,88.2z"/>
<rect x="90.9" y="88.2" class="st6" width="13.7" height="3.6"/>
<polygon class="st0" points="55.1,53.9 62,47.6 67.4,52.7 73,46.7 82.9,53 75,58.6 67.8,56.8 61.8,59.4 "/>
<path class="st1" d="M15.9,81.7c-3.1,7.9-4.8,18.7-1.4,32.3c6.3,7.9,14,14.7,22.6,19.9c0,0-2.1-21,1.4-33.5c1.8-6.4,2.2-11.9,1-17
	C37,71.5,20.4,70.4,15.9,81.7z"/>
<path class="st7" d="M15.9,81.7c-3.1,7.9-4.8,18.7-1.4,32.3c6.3,7.9,14,14.7,22.6,19.9c0,0-2.1-21,1.4-33.5c1.8-6.4,2.2-11.9,1-17
	C37,71.5,20.4,70.4,15.9,81.7z"/>
<circle class="st0" cx="72.3" cy="128.5" r="2.5"/>
</svg>
