<?xml version="1.0" encoding="utf-8"?>
<!-- Generator: Adobe Illustrator 23.0.0, SVG Export Plug-In . SVG Version: 6.00 Build 0)  -->
<svg version="1.1" id="Layer_1" xmlns="http://www.w3.org/2000/svg" xmlns:xlink="http://www.w3.org/1999/xlink" x="0px" y="0px"
	 viewBox="0 0 141.9 142.3" style="enable-background:new 0 0 141.9 142.3;" xml:space="preserve">
<style type="text/css">
	.st0{fill:#24285B;}
	.st1{fill:#F4A28C;}
	.st2{opacity:0.31;fill:#CE8172;enable-background:new    ;}
	.st3{fill:#E44634;}
	.st4{opacity:0.46;fill:#FFFFFF;enable-background:new    ;}
	.st5{opacity:8.000000e-02;enable-background:new    ;}
	.st6{fill:#FFD200;}
</style>
<title>#127_user avatar_twocolour</title>
<circle class="st0" cx="70.9" cy="70.9" r="70.9"/>
<path class="st1" d="M66.6,25.4c0,0-1.4,7-0.8,11.9c0.3,2,2.1,3.4,4,3.1c0,0,0,0,0,0c2.4-0.4,5.7-1.6,6.9-5.2l2.9-6
	c0.9-2.6,0.1-5.5-2-7.2C73.9,18.6,67.3,21.1,66.6,25.4z"/>
<polygon class="st1" points="79.1,30.3 80,53.8 67,53.4 71.6,36.4 "/>
<path class="st1" d="M65.9,29.9l-2.3,2.5c-0.4,0.5-0.4,1.2,0.1,1.6c0.1,0.1,0.3,0.2,0.4,0.3l2.7,0.8L65.9,29.9z"/>
<path class="st2" d="M70.4,40.1c1.7-0.2,3.2-0.9,4.5-2c0,0-0.7,4.3-5.9,7.9L70.4,40.1z"/>
<path class="st3" d="M60.9,55.5c0,0-20.3-2.8-22.3,15.4s4.5,44.9-5.8,60.1l1.7,1c3.2,1.9,6.7,3.5,10.3,4.6l0,0
	C44.7,136.7,81.7,99.5,60.9,55.5z"/>
<path class="st4" d="M60.9,55.5c0,0-20.3-2.8-22.3,15.4s4.5,44.9-5.8,60.1l1.7,1c3.2,1.9,6.7,3.5,10.3,4.6l0,0
	C44.7,136.7,81.7,99.5,60.9,55.5z"/>
<path class="st3" d="M67,53.4l13,0.4c0,0,32.2,2.6,34,25.8s-5.4,51.5-5.4,51.5S79,152.4,42.5,136l0.6-3.7c2-12.3-0.3-24.9-6.6-35.6
	c-4.7-8.3-7-19.1,4.6-28C62.4,52.3,67,53.4,67,53.4z"/>
<path class="st3" d="M60.9,55.5c0,0-3-5.4,5.9-8.7s21.7-2.2,20.4,8.3C87.1,55,72.4,52.7,60.9,55.5z"/>
<path class="st4" d="M60.9,55.5c0,0-3-5.4,5.9-8.7s21.7-2.2,20.4,8.3C87.1,55,72.4,52.7,60.9,55.5z"/>
<path class="st5" d="M87.2,68.6c0,0-21.8,12.3-10.1,25.6s11,22.1,8.8,34.4c-2.2,12.3-31.1,11.6-31.1,11.6s19,6.2,41.5-2.9l20.9-27.7
	L102.5,71L87.2,68.6z"/>
<path class="st6" d="M67,22.3c0,0,0,8,7.4,8.2c0,0-0.3,5.5,2.7,15.6c3,10.2,8.9,15.1,18.8,14.1l8.6,2.6c1.2-6.5-1.5-13-7-16.7
	c-9.4-6.6-10.9-11-10.3-18c0.6-7.1-3.2-12.8-11.1-12.9S66.4,18.4,67,22.3z"/>
<path class="st1" d="M73.5,32.4c0,0,0.4-2.7,2.4-2.3c2,0.5,1.5,4.4-1.3,4.5L73.5,32.4z"/>
<path class="st3" d="M85.1,72.4c4.6-11.3,19.8-13.7,27.4-4.2c2.6,3.3,4.8,7.8,6,14.2c5,25.5,1.9,39.4,1.9,39.4s-13.9,13.2-24,15.5
	c0,0,6.6-13,2.3-31.1C95.2,91.6,79.1,86.9,85.1,72.4z"/>
<path class="st4" d="M85.1,72.4c4.6-11.3,19.8-13.7,27.4-4.2c2.6,3.3,4.8,7.8,6,14.2c5,25.5,1.9,39.4,1.9,39.4s-13.9,13.2-24,15.5
	c0,0,6.6-13,2.3-31.1C95.2,91.6,79.1,86.9,85.1,72.4z"/>
</svg>
